/* XPM */
static char * C:\frazCoin\share\pixmaps\bitcoin32_xpm[] = {
"32 32 184 2",
"  	c None",
". 	c #55D658",
"+ 	c #5FE762",
"@ 	c #5BE35D",
"# 	c #7DFF80",
"$ 	c #43BD45",
"% 	c #37AD39",
"& 	c #6EFF71",
"* 	c #61EB64",
"= 	c #74FF77",
"- 	c #34A736",
"; 	c #61EA64",
"> 	c #69F76C",
", 	c #5DE660",
"' 	c #68F56B",
") 	c #68F46B",
"! 	c #4BCB4E",
"~ 	c #71FF74",
"{ 	c #5EE761",
"] 	c #60EA63",
"^ 	c #5EE660",
"/ 	c #70FF74",
"( 	c #50D253",
"_ 	c #38AE3A",
": 	c #70FF73",
"< 	c #61EC64",
"[ 	c #60E963",
"} 	c #6DFD71",
"| 	c #2E9F30",
"1 	c #66F369",
"2 	c #62ED65",
"3 	c #5FE962",
"4 	c #4BCA4E",
"5 	c #27962A",
"6 	c #59DF5B",
"7 	c #5CE560",
"8 	c #5AE25E",
"9 	c #61EA63",
"0 	c #5EE861",
"a 	c #6DFA70",
"b 	c #59D95C",
"c 	c #279529",
"d 	c #4CCC4F",
"e 	c #54D656",
"f 	c #54D756",
"g 	c #5BE35E",
"h 	c #60EB63",
"i 	c #62EE65",
"j 	c #39AF3B",
"k 	c #28962A",
"l 	c #3FBA42",
"m 	c #48C74C",
"n 	c #4CCB4E",
"o 	c #54D857",
"p 	c #5AE15D",
"q 	c #5EE661",
"r 	c #67F46A",
"s 	c #40B943",
"t 	c #28952A",
"u 	c #34AA37",
"v 	c #3EB741",
"w 	c #44BF46",
"x 	c #4DCD4F",
"y 	c #54D856",
"z 	c #6EFF72",
"A 	c #6BF96E",
"B 	c #35AA37",
"C 	c #269528",
"D 	c #2B9B2E",
"E 	c #3CB53F",
"F 	c #46C248",
"G 	c #53D856",
"H 	c #58DF5A",
"I 	c #72FF75",
"J 	c #55D958",
"K 	c #269529",
"L 	c #269427",
"M 	c #2FA030",
"N 	c #37AC39",
"O 	c #3FB841",
"P 	c #46C449",
"Q 	c #4CCD4F",
"R 	c #57DD5A",
"S 	c #6BFB6E",
"T 	c #64EF66",
"U 	c #259428",
"V 	c #29982C",
"W 	c #2EA031",
"X 	c #33A735",
"Y 	c #3AB13D",
"Z 	c #42BC44",
"` 	c #48C64A",
" .	c #46C348",
"..	c #4FD152",
"+.	c #2A982C",
"@.	c #40BA42",
"#.	c #45C047",
"$.	c #58DE5B",
"%.	c #2A9A2D",
"&.	c #3DB640",
"*.	c #79FF7C",
"=.	c #30A132",
"-.	c #36AB39",
";.	c #4DCE50",
">.	c #35AB38",
",.	c #6CFB6F",
"'.	c #46C448",
").	c #2B9B2D",
"!.	c #58DD5A",
"~.	c #3BB23E",
"{.	c #4CCB4D",
"].	c #71FF73",
"^.	c #64F067",
"/.	c #66F36A",
"(.	c #5BE35F",
"_.	c #3FB942",
":.	c #2FA132",
"<.	c #32A534",
"[.	c #53D756",
"}.	c #5FE862",
"|.	c #66F46A",
"1.	c #2EA030",
"2.	c #2D9E2E",
"3.	c #29982B",
"4.	c #39B03B",
"5.	c #51D554",
"6.	c #59DF5C",
"7.	c #59E05C",
"8.	c #6FFC72",
"9.	c #3BB13D",
"0.	c #45C147",
"a.	c #4AC94D",
"b.	c #52D555",
"c.	c #5CE35E",
"d.	c #6AF86D",
"e.	c #6DFC71",
"f.	c #289629",
"g.	c #32A533",
"h.	c #3AB13C",
"i.	c #41BD44",
"j.	c #54D957",
"k.	c #63EF67",
"l.	c #30A232",
"m.	c #43BE46",
"n.	c #48C54A",
"o.	c #4ECE50",
"p.	c #69F66B",
"q.	c #28972A",
"r.	c #38AF3B",
"s.	c #66F268",
"t.	c #33A736",
"u.	c #208B23",
"v.	c #6CFD6F",
"w.	c #36AC38",
"x.	c #3FB941",
"y.	c #2A992C",
"z.	c #218C23",
"A.	c #43BE44",
"B.	c #44C147",
"C.	c #34A936",
"D.	c #28982B",
"E.	c #1E8820",
"F.	c #36AC39",
"G.	c #44C047",
"H.	c #35AC39",
"I.	c #33A836",
"J.	c #2B9A2C",
"K.	c #68F66B",
"L.	c #58DE5A",
"M.	c #46C349",
"N.	c #41BB43",
"O.	c #63EE66",
"P.	c #58DD5B",
"Q.	c #4FD052",
"R.	c #4ACA4E",
"S.	c #47C54A",
"T.	c #67EB6A",
"U.	c #78FF7B",
"V.	c #68F86B",
"W.	c #5EE460",
"X.	c #4ACA4D",
"Y.	c #4BCA4D",
"Z.	c #4FD252",
"`.	c #4ECF51",
"                                                                ",
"                                . +                             ",
"                                @ # $                           ",
"                              % & * = -                         ",
"                              ; > , ' )                         ",
"                            ! ~ { ] ^ / (                       ",
"                          _ : < [ ] ] < }                       ",
"                        | 1 2 3 ] ] ] { & 4                     ",
"                      5 6 7 8 9 ] ] ] 0 a b                     ",
"                    c d e f g ] h ] 0 i = j                     ",
"                  k l m n o p [ h q r = s                       ",
"                t u v w x y p q ] z A B                         ",
"              C D u E F x G H ) I J                             ",
"            K L M N O P Q R S T %               U               ",
"          5 V W X Y Z ` 8 2  .                  ..              ",
"            +.B l @.#.$.( %.                  &.*.=.            ",
"                -.;.p &.                    >.,.I '.            ",
"                  ).!.~.                  {.].^./.(.            ",
"                      _.:.            <.[.> < }.2 |.1.          ",
"                        2.3.        4.5.6.7.] * 0 8.9.          ",
"                            3.  3.% 0.a.b.c.] { d.e.).          ",
"                              f.g.h.i.d j.p k.I > l.            ",
"                                M m.n.o.$.S p.n                 ",
"                                q.r.o $.s.y                     ",
"                                t.u.l v.w.                      ",
"                                x.y.z.4.                        ",
"                              A.B.C.D.E.                        ",
"                            F.g G.E H.I.J.                      ",
"                            K.L.d M.N._._.                      ",
"                          O.d.P.j.Q.R.S.( 4.                    ",
"                        T.U.V.A r O.3 7 ^.7.                    ",
"                      w W.d d ! X.a.Y.Y.Z.`.                    "};
