/* XPM */
static char * C:\frazCoin\share\pixmaps\bitcoin64_xpm[] = {
"64 64 371 2",
"  	c None",
". 	c #269328",
"+ 	c #55DA58",
"@ 	c #6BFA6E",
"# 	c #62ED65",
"$ 	c #33A836",
"% 	c #68F66B",
"& 	c #6FFF72",
"* 	c #45C247",
"= 	c #6CFC6F",
"- 	c #5FE862",
"; 	c #71FF74",
"> 	c #49C94C",
", 	c #5DE660",
"' 	c #67F46A",
") 	c #62EC64",
"! 	c #6FFF73",
"~ 	c #3CB43E",
"{ 	c #39B03B",
"] 	c #6DFE70",
"^ 	c #60EA63",
"/ 	c #65F168",
"( 	c #2E9F2F",
"_ 	c #5CE45F",
": 	c #5FE962",
"< 	c #5EE761",
"[ 	c #6AF96D",
"} 	c #60EA62",
"| 	c #41BB43",
"1 	c #6EFF71",
"2 	c #4FD152",
"3 	c #259227",
"4 	c #65F268",
"5 	c #61EC64",
"6 	c #6DFF70",
"7 	c #36AB38",
"8 	c #57DC59",
"9 	c #68F66C",
"0 	c #61EB64",
"a 	c #43BE46",
"b 	c #70FF73",
"c 	c #60E962",
"d 	c #5EE861",
"e 	c #32A434",
"f 	c #63EF66",
"g 	c #66F369",
"h 	c #29982B",
"i 	c #62EE65",
"j 	c #64F067",
"k 	c #47C44A",
"l 	c #218C23",
"m 	c #59E05C",
"n 	c #5BE25E",
"o 	c #60E963",
"p 	c #67F56B",
"q 	c #5CE560",
"r 	c #208A21",
"s 	c #51D354",
"t 	c #58DE5B",
"u 	c #5BE45F",
"v 	c #32A635",
"w 	c #1F8921",
"x 	c #55D957",
"y 	c #58DF5C",
"z 	c #5CE35F",
"A 	c #5EE661",
"B 	c #3EB73F",
"C 	c #208C23",
"D 	c #44C047",
"E 	c #51D353",
"F 	c #55D958",
"G 	c #5AE25D",
"H 	c #5DE560",
"I 	c #60EB63",
"J 	c #6CFC70",
"K 	c #3BB23D",
"L 	c #3FB942",
"M 	c #51D454",
"N 	c #4CCC4F",
"O 	c #50D253",
"P 	c #54D856",
"Q 	c #57DC5A",
"R 	c #59E15C",
"S 	c #5CE55F",
"T 	c #5FE861",
"U 	c #69F76C",
"V 	c #259328",
"W 	c #238F24",
"X 	c #3BB33E",
"Y 	c #4ACA4E",
"Z 	c #48C54A",
"` 	c #4CCB4E",
" .	c #50D152",
"..	c #53D656",
"+.	c #35AA37",
"@.	c #37AE3A",
"#.	c #44C147",
"$.	c #43BF46",
"%.	c #4BCB4E",
"&.	c #4FD052",
"*.	c #52D655",
"=.	c #55DB59",
"-.	c #59DF5C",
";.	c #5CE35E",
">.	c #3DB63F",
",.	c #279429",
"'.	c #34A836",
").	c #3EB841",
"!.	c #43BE45",
"~.	c #47C54A",
"{.	c #4BCA4E",
"].	c #4FD051",
"^.	c #52D554",
"/.	c #55DA59",
"(.	c #58DF5B",
"_.	c #5BE35E",
":.	c #3AB23D",
"<.	c #28962A",
"[.	c #30A333",
"}.	c #38AF3B",
"|.	c #39B23D",
"1.	c #3EB740",
"2.	c #43BE44",
"3.	c #47C449",
"4.	c #4BC94D",
"5.	c #4ED051",
"6.	c #52D555",
"7.	c #63EE66",
"8.	c #30A332",
"9.	c #2D9D2F",
"0.	c #33A735",
"a.	c #35AB38",
"b.	c #3EB741",
"c.	c #66F269",
"d.	c #249127",
"e.	c #28972A",
"f.	c #2A992B",
"g.	c #2EA031",
"h.	c #31A535",
"i.	c #37AC38",
"j.	c #3FB841",
"k.	c #56DA58",
"l.	c #6DFD70",
"m.	c #3DB640",
"n.	c #1A811C",
"o.	c #269528",
"p.	c #2B9B2D",
"q.	c #2FA132",
"r.	c #32A736",
"s.	c #37AD39",
"t.	c #44BF46",
"u.	c #48C44A",
"v.	c #52D656",
"w.	c #55DB58",
"x.	c #69F66C",
"y.	c #6EFE71",
"z.	c #53D756",
"A.	c #289629",
"B.	c #34A937",
"C.	c #3CB53F",
"D.	c #40BA43",
"E.	c #48C74B",
"F.	c #4DCC4E",
"G.	c #62EC65",
"H.	c #1B831D",
"I.	c #259427",
"J.	c #259327",
"K.	c #269529",
"L.	c #2B9C2D",
"M.	c #2FA030",
"N.	c #32A634",
"O.	c #3AB03C",
"P.	c #3EB641",
"Q.	c #42BC43",
"R.	c #45C248",
"S.	c #49C84C",
"T.	c #4CCD50",
"U.	c #50D353",
"V.	c #5AE15D",
"W.	c #67F56A",
"X.	c #47C64A",
"Y.	c #218D23",
"Z.	c #2D9F30",
"`.	c #279529",
" +	c #2B9B2C",
".+	c #2EA030",
"++	c #31A433",
"@+	c #37AE3B",
"#+	c #3CB43F",
"$+	c #40B941",
"%+	c #43BF45",
"&+	c #4ACA4D",
"*+	c #4ECF51",
"=+	c #66F46A",
"-+	c #52D455",
";+	c #45C348",
">+	c #28972B",
",+	c #29992C",
"'+	c #36AC39",
")+	c #3AB23C",
"!+	c #41BC44",
"~+	c #44C148",
"{+	c #4CCC4E",
"]+	c #1B851D",
"^+	c #1B841D",
"/+	c #2FA131",
"(+	c #34A837",
"_+	c #36AC38",
":+	c #39B13C",
"<+	c #4AC94D",
"[+	c #4CCD4F",
"}+	c #42BD45",
"|+	c #238F25",
"1+	c #39B03C",
"2+	c #6DFD71",
"3+	c #3DB540",
"4+	c #46C348",
"5+	c #49C64B",
"6+	c #4DCD50",
"7+	c #5AE25E",
"8+	c #2D9F2F",
"9+	c #67F36A",
"0+	c #6BFC6E",
"a+	c #48C64A",
"b+	c #46C349",
"c+	c #44C146",
"d+	c #56DB59",
"e+	c #6AF86D",
"f+	c #67F66B",
"g+	c #5AE05C",
"h+	c #238E24",
"i+	c #53D856",
"j+	c #1C851E",
"k+	c #30A233",
"l+	c #65F067",
"m+	c #6AFA6D",
"n+	c #61EA63",
"o+	c #35AA38",
"p+	c #6CFB6E",
"q+	c #68F76C",
"r+	c #208A22",
"s+	c #32A533",
"t+	c #5CE660",
"u+	c #259127",
"v+	c #2C9D2E",
"w+	c #54D857",
"x+	c #6AFA6E",
"y+	c #63EE65",
"z+	c #4FD252",
"A+	c #239026",
"B+	c #228E24",
"C+	c #40BA42",
"D+	c #63ED65",
"E+	c #5CE45E",
"F+	c #64F066",
"G+	c #2E9F30",
"H+	c #39AF3B",
"I+	c #31A333",
"J+	c #58DD5B",
"K+	c #57DD5B",
"L+	c #6BF96E",
"M+	c #2A9A2C",
"N+	c #2A9B2C",
"O+	c #3DB53E",
"P+	c #50D252",
"Q+	c #1F8A21",
"R+	c #31A533",
"S+	c #40BB42",
"T+	c #4BCC4E",
"U+	c #59DF5B",
"V+	c #6BFB6E",
"W+	c #2B9A2D",
"X+	c #33A736",
"Y+	c #3BB43E",
"Z+	c #42BD44",
"`+	c #40B942",
" @	c #279629",
".@	c #38B03B",
"+@	c #6DFF71",
"@@	c #5FE963",
"#@	c #2D9E2F",
"$@	c #48C74C",
"%@	c #4DCE50",
"&@	c #38AE39",
"*@	c #3CB53E",
"=@	c #4BCA4C",
"-@	c #5AE15E",
";@	c #5EE660",
">@	c #6EFE70",
",@	c #4FD151",
"'@	c #2B9C2E",
")@	c #50D354",
"!@	c #59DE5B",
"~@	c #68F56B",
"{@	c #37AD3A",
"]@	c #28952A",
"^@	c #30A131",
"/@	c #41BD44",
"(@	c #43BF47",
"_@	c #45C148",
":@	c #4FCF50",
"<@	c #5FE761",
"[@	c #3DB53F",
"}@	c #56DA59",
"|@	c #5DE760",
"1@	c #40BB43",
"2@	c #54D957",
"3@	c #51D556",
"4@	c #66F36A",
"5@	c #2C9D2F",
"6@	c #1D871F",
"7@	c #5DE761",
"8@	c #259228",
"9@	c #19821C",
"0@	c #47C549",
"a@	c #69F86C",
"b@	c #2FA231",
"c@	c #2B9B2E",
"d@	c #1B831C",
"e@	c #37AC39",
"f@	c #31A634",
"g@	c #1C861F",
"h@	c #35A936",
"i@	c #2A992C",
"j@	c #208B22",
"k@	c #4DCF51",
"l@	c #41BC43",
"m@	c #35A937",
"n@	c #38AF3A",
"o@	c #41BB44",
"p@	c #3CB540",
"q@	c #32A735",
"r@	c #30A232",
"s@	c #55DA57",
"t@	c #49C74C",
"u@	c #4DCC4F",
"v@	c #49C74B",
"w@	c #3AB33D",
"x@	c #4BCA4D",
"y@	c #56DC59",
"z@	c #54D757",
"A@	c #4AC94C",
"B@	c #42BE45",
"C@	c #42BC44",
"D@	c #3FBA42",
"E@	c #3DB73F",
"F@	c #5AE05D",
"G@	c #57DD5A",
"H@	c #53D957",
"I@	c #48C64B",
"J@	c #44C249",
"K@	c #32A534",
"L@	c #64F167",
"M@	c #58DE5A",
"N@	c #54D756",
"O@	c #50D453",
"P@	c #4ED052",
"Q@	c #4DCD4F",
"R@	c #68F76B",
"S@	c #60E863",
"T@	c #5BE25D",
"U@	c #57DB5A",
"V@	c #69F36C",
"W@	c #75FF78",
"X@	c #67F66A",
"Y@	c #65F369",
"Z@	c #64EF67",
"`@	c #34A736",
" #	c #33A635",
".#	c #31A434",
"+#	c #35AB37",
"                                                                  .                                                             ",
"                                                                  +                                                             ",
"                                                                  @ #                                                           ",
"                                                                $ % & +                                                         ",
"                                                                * = - ; >                                                       ",
"                                                                , ' - ) ! ~                                                     ",
"                                                              { ] ^ ^ - / = (                                                   ",
"                                                              _ % : ^ ^ < [ }                                                   ",
"                                                            | 1 : ^ ^ ^ ^ < & 2                                                 ",
"                                                          3 ' 4 : ^ ^ ^ ^ ^ 5 6 7                                               ",
"                                                          8 = < ^ ^ ^ ^ ^ ^ - 9 0                                               ",
"                                                        a b c ^ ^ ^ ^ ^ ^ ^ ^ d & *                                             ",
"                                                      e @ f : ^ ^ ^ ^ ^ ^ ^ ^ : / g h                                           ",
"                                                    h i j < ^ ^ ^ ^ ^ ^ ^ ^ ^ ^ - 1 k                                           ",
"                                                  l m j n o ^ ^ ^ ^ ^ ^ ^ ^ ^ ^ : p q                                           ",
"                                                r s 5 t u d ^ ^ ^ ^ ^ ^ ^ ^ ^ ^ ^ ) ' v                                         ",
"                                              w > , x y z A o ^ ^ ^ ^ ^ ^ ^ ^ ^ ^ o = B                                         ",
"                                            C D 8 E F t G H c I ^ ^ ^ ^ ^ ^ ^ ^ ^ o J K                                         ",
"                                          l L M N O P Q R S T ^ ^ ^ ^ ^ ^ ^ ^ ^ d U 0 V                                         ",
"                                        W X Y Z `  ...8 m _ - ^ ^ ^ ^ ^ ^ ^ ^ - j & +.                                          ",
"                                      3 @.#.$.k %.&.*.=.-.;.< ^ ^ ^ ^ ^ ^ ^ < / b >.                                            ",
"                                    ,.'.).).!.~.{.].^./.(._.A ^ ^ ^ ^ ^ ^ < U ] :.                                              ",
"                                  <.[.}.|.1.2.3.4.5.6.F t _.A o ^ ^ ^ - ^ 1 7.8.                                                ",
"                                <.9.0.a.:.b.!.3.4.5.6.F t _.A o ^ ^ < c.& P d.                                                  ",
"                              e.f.g.h.i.K j.$.~.{.5.^.k.(._.A ^ : ^ l.' m.n.                                                    ",
"                            e.o.p.q.r.s.X L t.u.` &.v.w.-.z , d x.y.z.A.                        h                               ",
"                          h . <.9.[.B.}.C.D.D E.F. ...8 m G G.& ^ { H.                          I.J.                            ",
"                        h V K.L.M.N.a.O.P.Q.R.S.T.U.P /.V.% W.X.Y.                              Z.g.                            ",
"                        `.`. +.+++B.@+#+$+%+3.&+*+M z.- =+-+(                                   ;+O                             ",
"                      >+,+9.Z.8.$ '+)+m.!+~+E.{+*+F # t s.]+                                  ^+A 7.l                           ",
"                        h /+(+(+_+:+#+D.$.k <+[+-.S }+|+                                      1+2+% N.                          ",
"                          <./+:.3+#+L !.4+5+6+7+2 8+                                        <.9+/ 0+a+                          ",
"                            J.p.:.b+* c+a+%.d+t.Y.                                        3 ^ e+< f+g+h+                        ",
"                                3 '.E.O %.i+!+j+                                        k+l+m+< ^ 5 U '.                        ",
"                                    h !+d+n+o+                                        !.p+q+< ^ ^ : J 3.                        ",
"                                      r+s+d+t+u+                                  v+w+x+y+T ^ ^ ^ : q+=.l                       ",
"                                          l [+z+A+                            B+C+< D+E+- I ^ ^ ^ ^ 7.F+G+                      ",
"                                              )+H+                          I+{+_.J+K+_ : I ^ ^ ^ ^ ^ L+:.                      ",
"                                                M+N+                    M+O+*+s P+x -._ - ^ ^ ^ ^ ^ ^ @ $.Q+                    ",
"                                                    h h               R+S+~.~.T+s F U+_ - ^ ^ ^ ^ ^ o V+3.r                     ",
"                                                      h h         W+X+Y+).Z+~.{+E + -._ - ^ ^ ^ ^ ^ - & `+                      ",
"                                                        h h    @M+8.+..@b.$.a+6+M + y _ : I ^ ^ ^ < +@@@u+                      ",
"                                                          h <.e.#@++7 :.C+#.$@%@*.d+g+q : ^ ^ - 5 ! : A.                        ",
"                                                              f.++(+&@*@!+4+=@].z.Q -@;@^ : @@e+>@,@Y.                          ",
"                                                              <.'@H+~ ).$.a+N )@x !@_.A : ~@1 S {@                              ",
"                                                                ]@^@/@(@_@<+:@6.d+m n 4 & <@[@                                  ",
"                                                                #@G+++%.<+{+E w+}@|@@ 5 1@                                      ",
"                                                                '@s.3 a.2@U.3@w+0 4@3.                                          ",
"                                                                G+'+5@6@1.7@z.0 T .+                                            ",
"                                                                '.{@g.8@9@0@a@G                                                 ",
"                                                              h >.'+b@c@Q+d@d L                                                 ",
"                                                              s.!.e@f@#@,+g@<.                                                  ",
"                                                            M+S.1@:+h@8.5@i@j@u+                                                ",
"                                                            t.k@l@m.H+m@I+8+p.h                                                 ",
"                                                          n@-.> R.o@p@{ a.q@[.r@v+                                              ",
"                                                        `.S s@N t@R.| m.:.@.a.+.e@W+                                            ",
"                                                        d+0 *.U.u@v@;+!.C+m.X w@>.{                                             ",
"                                                      x@@ -.y@z@)@6+A@~._@B@C@1@D@b+I+                                          ",
"                                                    E@b o z F@G@H@M ].N A@I@0@4+J@%.%+                                          ",
"                                                  K@l.L@: - q V.M@k.N@O@P@%@[+` %.Q@6.M.                                        ",
"                                                h R@W.d ^ ^ S@H T@U+U@F i+6.M )@U.O V.D@                                        ",
"                                                / @ : G.G.# 7.# 0 - , ;.V.t G@8 }@w.< 2                                         ",
"                                            v+V@W@X@% ' =+Y@/ / Z@# # G.5 5 0 5 # # [ -                                         ",
"                                            s.Z+m@7 B.`@ #R+++k+/+/+8.I+.# #0.X++.+#H+{                                         "};
