/* XPM */
static char * C:\frazCoin\share\pixmaps\bitcoin16_xpm[] = {
"16 16 61 1",
" 	c None",
".	c #3EB440",
"+	c #7AFF7D",
"@	c #4CC74E",
"#	c #4FCF52",
"$	c #72FF76",
"%	c #6CFB6F",
"&	c #47C64B",
"*	c #70FF73",
"=	c #5DE660",
"-	c #6CFA6F",
";	c #5CDE60",
">	c #30A333",
",	c #5BE25E",
"'	c #61EC64",
")	c #5EE860",
"!	c #74FF77",
"~	c #5EDE61",
"{	c #27962B",
"]	c #44C047",
"^	c #51D353",
"/	c #5FE862",
"(	c #75FF79",
"_	c #60E763",
":	c #249226",
"<	c #2FA031",
"[	c #40BB43",
"}	c #5CE55F",
"|	c #6DFC6F",
"1	c #47C349",
"2	c #2C9D2F",
"3	c #51D253",
"4	c #4BCC4E",
"5	c #46C049",
"6	c #3BB23D",
"7	c #50D153",
"8	c #6CF86F",
"9	c #65EE68",
"0	c #34A936",
"a	c #62EC65",
"b	c #6CFD6E",
"c	c #69F16D",
"d	c #49C14C",
"e	c #33A634",
"f	c #4BCA4E",
"g	c #6FFF72",
"h	c #59DE5C",
"i	c #5AE15D",
"j	c #67F569",
"k	c #4FD052",
"l	c #3BB33E",
"m	c #3AB23C",
"n	c #45C348",
"o	c #208C23",
"p	c #71FF74",
"q	c #54DA58",
"r	c #4ED053",
"s	c #3DB640",
"t	c #64E966",
"u	c #57DC5A",
"v	c #56DB59",
"        .       ",
"        +@      ",
"       #$%      ",
"      &*=-;     ",
"     >,')!~     ",
"    {]^/(_      ",
"   :<[}|1       ",
"   2[34     5   ",
"    67     89   ",
"         0abcd  ",
"        ef/gh   ",
"        >ijk    ",
"        2l      ",
"       mno      ",
"       pqrs     ",
"      tauiv     "};
